# Plaque/stand (Part 35.stl) aligned to printed ArUco marker center
# Units: metres; Unity axes: X right, Y marker normal/up, Z toward jaw
# Generated by export_plaque_obj.py from the pre-jaw-fusion stand STL used as
# input to build_printable_jaw_aruco.py -- not a modification of any source STL.
o JawPlaqueMarkerAligned
v -0.0587760918 -0.006899998 -0.0445978088
v -0.0587760918 -0.006899998 0.11283746
v 0.0587760923 -0.006899998 -0.0445978088
vn 0 -1 0
f 1//1 3//1 2//1
v -0.0587760918 -0.006899998 0.11283746
v 0.0587760923 -0.006899998 0.11283746
v 0.0587760923 -0.006899998 -0.0445978088
vn 0 -1 -0
f 4//2 6//2 5//2
v -0.0587760918 -2.88818356e-10 0.11283746
v -0.0587760918 -2.88818356e-10 -0.0445978088
v 0.0587760923 -2.88818356e-10 0.11283746
vn -0 1 0
f 7//3 9//3 8//3
v -0.0587760918 -2.88818356e-10 -0.0445978088
v 0.0587760923 -2.88818356e-10 -0.0445978088
v 0.0587760923 -2.88818356e-10 0.11283746
vn -0 1 -0
f 10//4 12//4 11//4
v 0.0587760923 -2.88818356e-10 -0.0445978088
v -0.0587760918 -2.88818356e-10 -0.0445978088
v 0.0587760923 -0.006899998 -0.0445978088
vn -0 -0 -1
f 13//5 15//5 14//5
v -0.0587760918 -2.88818356e-10 -0.0445978088
v -0.0587760918 -0.006899998 -0.0445978088
v 0.0587760923 -0.006899998 -0.0445978088
vn -0 -0 -1
f 16//6 18//6 17//6
v -0.0587760918 -2.88818356e-10 -0.0445978088
v -0.0587760918 -2.88818356e-10 0.11283746
v -0.0587760918 -0.006899998 -0.0445978088
vn -1 0 0
f 19//7 21//7 20//7
v -0.0587760918 -2.88818356e-10 0.11283746
v -0.0587760918 -0.006899998 0.11283746
v -0.0587760918 -0.006899998 -0.0445978088
vn -1 -0 -0
f 22//8 24//8 23//8
v 0.0587760923 -2.88818356e-10 0.11283746
v 0.0587760923 -2.88818356e-10 -0.0445978088
v 0.0587760923 -0.006899998 0.11283746
vn 1 0 0
f 25//9 27//9 26//9
v 0.0587760923 -2.88818356e-10 -0.0445978088
v 0.0587760923 -0.006899998 -0.0445978088
v 0.0587760923 -0.006899998 0.11283746
vn 1 -0 -0
f 28//10 30//10 29//10
v -0.0587760918 -2.88818356e-10 0.11283746
v 0.0587760923 -2.88818356e-10 0.11283746
v -0.0587760918 -0.006899998 0.11283746
vn -0 0 1
f 31//11 33//11 32//11
v 0.0587760923 -2.88818356e-10 0.11283746
v 0.0587760923 -0.006899998 0.11283746
v -0.0587760918 -0.006899998 0.11283746
vn -0 0 1
f 34//12 36//12 35//12
